<?xml version="1.0" encoding="UTF-8" standalone="no"?>
<!-- Copyright 2017 mathsisfun.com -->
<svg xmlns="http://www.w3.org/2000/svg" width="359.1" height="519.4" version="1.1">
<defs/>
<rect x="-853.3" y="-78.5" width="36" height="48.2"/>
<path style="fill:white; stroke:black; stroke-width:1.72;" d="m 336,163.1 c 0.1,2.3 -1.5,5.6 -1.7,7.9 -0.2,1.6 0,3.3 -0.7,4.6 -0.7,1.6 -2.8,2.1 -3,3.7 -0.4,1.6 0.7,3.3 0.7,5.1 0,1.9 -3.5,1.9 -5.4,2.3 -0.9,0.2 -1.8,1.4 -2.4,0.9 -4.5,-1.4 -1.1,-5.8 -6.9,-6 -2.2,0 -3.6,3.3 -5.9,3.5 -3.9,0.7 -9,-3.5 -12.5,0.9 -1.5,1.9 -0.5,8.1 -3.1,9.3 -0.9,0.2 -2.3,-0.7 -3.2,-0.2 -3.7,2.3 1.6,3.9 -4.2,4.9 -1.9,0.2 -5.9,-4.9 -7.9,-1.6 -0.6,1.2 0.5,3.3 -0.4,4.2 -2.6,2.5 -9.8,0.9 -13,3.3 -3,1.9 0.2,5.1 1.2,6.5 0.9,1.6 -18.8,5.1 -21.6,4.6 -4.4,-0.9 -7.6,-7 -11.8,-7.4 -0.9,-0.2 -1.6,0 -2.1,0.2 -2.7,-3 -5.1,-6 -7.2,-9.5 -1.3,-2.3 2.1,-5.6 1.9,-8.6 3.2,-13.7 10.9,-2.3 17.8,-10.9 0.5,-0.7 -0.3,-1.9 0.3,-2.6 0.7,-0.9 2.2,-0.5 3,-1.4 0,0 1.8,-7.2 1.8,-7.4 2.1,-3.7 7.6,-6.7 11.6,-8.6 0.5,0.7 2.1,-0.5 2.8,0.2 0.7,0.7 -0.5,2.3 0.2,3 3.8,3 6.7,-8.8 9.1,-7.2 1.3,0.9 1.3,3 2.6,4.2 0.1,0.2 1.1,-0.5 1.2,-0.2 0.3,0.5 -0.6,1.4 -0.1,1.6 1.1,0.2 2.3,-0.9 3.2,-0.5 1.6,0.7 0.2,5.1 0.2,5.6 0,1.2 2.1,-0.7 3.2,-0.9 1,-0.2 1.9,1.6 2.8,1.2 0.4,-0.2 3,-7.4 6.3,-8.1 1,-0.2 1.9,0.7 2.8,0.7 1,-0.2 1.4,-1.6 2.3,-1.4 1.9,0.2 3.1,2.8 4.9,2.8 1.4,0 2.5,-1.4 3.2,-2.6 0.3,-0.5 -1.1,-0.5 -1.1,-0.9 0.7,-3.3 2,0 3,-0.5 0.7,-0.2 0.7,-1.6 1.4,-1.6 3.5,-0.9 11.3,-0.7 14.4,1.6 0.7,0.7 0.4,2.3 1.3,2.8 1.4,0.9 3.1,0.9 4.7,1.4 2.1,0.7 4.1,0.9 6.3,1.2 z"/>
<path style="fill:white; stroke:black; stroke-width:1.72;" d="m 227,191.6 c 3.5,-13.7 11.2,-2.1 18.1,-10.9 0.5,-0.7 -0.3,-1.9 0.3,-2.6 0.7,-0.9 2.2,-0.5 3,-1.4 0,0 1.8,-7.2 1.8,-7.4 2.1,-3.7 7.6,-6.7 11.6,-8.6 -0.9,-1.2 -0.2,-3.3 -1.1,-4.4 -1,-0.9 -2.9,-0.2 -3.7,-0.9 -0.3,-0.2 -2.4,-5.8 -2.6,-6 -1.2,-0.9 -3.2,-0.2 -4.6,-0.7 -1.1,-0.2 -3.7,-0.9 -4.7,-1.6 -0.4,-0.2 -0.4,-1.2 -0.9,-0.9 -3.9,1.6 3.7,2.1 -3,2.8 -0.5,0 -1.1,-0.2 -1.6,-0.7 -0.7,-0.7 -0.6,-1.8 -1.2,-2.5 -0.9,-0.7 -4.1,-0.9 -3.3,-1.6 3.1,-2.8 5,0.7 2.1,-4.9 0,-0.2 -0.4,-0.2 -0.7,0 -0.2,0.5 0,1.4 -0.4,1.6 -1,0.5 -2.1,0 -3,0 -1,0 -2.1,0.5 -3.1,0.2 -2,-0.7 -5.9,-4.2 -9.4,-3.7 -1.5,0.2 3.6,5.3 3.5,5.8 -0.7,1.4 -3.1,0.9 -4.2,1.9 -0.8,0.7 -0.5,2.3 -1.5,2.8 -3.4,1.4 -4.8,-4.7 -5.5,-5.6 l -5.3,-3.3 c -0.5,-3 8.3,-4.2 2.1,-7.2 -1.2,-0.7 -6.2,2.1 -6.2,2.1 -0.8,-0.7 0,-1.9 -0.8,-2.6 -0.3,-0.5 -0.9,0 -1.6,0.2 -0.2,0 -0.4,0.7 -0.9,0.5 -0.6,-0.7 -0.3,-1.9 -1.2,-2.5 -3,-1.9 -6,0.2 -9.7,-2.8 -2.6,-1.9 0.9,-3.7 -3.3,-4.2 -6.4,-1.2 1,3.9 -5.2,4.9 -0.6,0.9 -0.8,1.6 -1.5,1.6 -3,0.7 -7.9,-12.1 -10.5,-4.9 -0.4,1.2 3.8,2.1 2.8,2.8 -2.8,2.3 -6.7,2.6 -9.5,4.2 -0.4,0.2 0,1.4 -0.4,1.6 -1.9,0.9 -4.4,-0.5 -5.8,0.7 -1.2,0.9 -0.8,2.8 -1.9,3.7 -0.4,0.5 -0.9,-1.2 -1.5,-0.9 -2.1,0.5 -2.4,3.2 -3.8,4.2 -0.7,0.7 -2.1,-0.5 -2.7,0.2 -0.7,0.5 0,1.9 -0.7,2.5 -1,1.2 -3.5,-0.9 -4.3,-0.9 -5.8,0.9 -6.6,5.3 -8.6,9 -0.4,0.9 -0.4,-2.3 -1.3,-3 -0.6,-0.9 -2.1,-1.2 -3.2,-1.4 -2.1,-0.5 2.3,7 6.9,10 0.4,0.2 2.1,0.5 2.3,1.9 0.7,3.2 -2.3,2.1 -2.7,4.6 -0.3,0.7 4.8,9.3 5.5,10 3.9,3.9 4.9,1.2 7.4,3.7 1.6,1.6 1.9,4.2 3.5,5.6 3.2,2.3 11.3,5.3 13,10 h 0.3 c 3.6,1.9 6.4,6.7 11.3,4.9 0.9,-0.2 0.7,-2.1 1.6,-2.1 1.6,0 3.2,2.1 4.9,1.6 l 1.8,-6 c 1,-0.7 2.6,0.9 3,0.2 0.5,-0.5 0,-7.2 0.3,-7.7 0.6,-0.7 2.1,-0.2 2.9,0.2 0.6,0.2 0,1.4 0.6,1.6 1.1,0 2,-1.4 3.2,-1.4 6.7,0 12,5.1 18.3,5.8 0.9,0 2,0.5 3,0.2 1.4,-0.7 1.8,-2.6 3,-3 1.6,-0.5 3.9,2.6 5.1,2.8 0.7,0 1.6,-1.4 2.3,-0.9 1.2,0.9 1.6,1.9 1.6,2.8 z"/>
<path style="fill:white; stroke:black; stroke-width:1.72;" d="m 218,246.5 c 1,0 2.8,7.2 7.7,11.1 6.2,5.1 11.5,7.9 16.4,14.1 0.8,0.9 5.3,0.2 5.8,0.5 1.9,0.7 3.3,2.3 4.8,3 3.3,1.4 13.5,1.2 16.5,-1.4 0.5,-0.5 0.7,-3.7 2.3,-3.7 4.4,-0.7 3.7,0.2 7.7,-4.2 0.7,-0.7 1.6,1.6 3.7,0 2.1,-1.6 3.4,-4.4 6,-5.8 5.4,-3.5 0.9,0 4.9,0.2 0.2,0 6.2,-1.9 6.5,-1.9 1.2,0 2.3,1.2 3.4,1.2 0.5,-0.2 0.8,-1.2 1.2,-1.4 1.4,-0.5 8.4,-1.2 8.9,-2.8 0.4,-0.9 -3.1,-2.1 1.1,-2.8 1.6,-0.2 3.2,1.4 4.6,0.9 4.5,-1.6 3,-10 4.1,-12.5 0.6,-0.7 1.7,-0.7 2.1,-1.4 l 2.6,-8.1 c 0.5,-1.2 1.2,-2.1 1.2,-3.3 0,-0.5 -1.2,-0.5 -1.2,-0.9 0.3,-2.1 2.8,-8.6 3.9,-10.4 0.5,-0.5 1.7,0 1.7,-0.7 1.1,-4.4 -0.5,-7.7 4.6,-12.5 1.6,-1.8 3.5,-0.7 6,-1.6 2.6,-1.2 2.9,-4.6 4.7,-6.5 -2.8,-2.3 0.9,-1.9 -2.1,-3.9 -0.4,-0.2 -1.2,-0.7 -1.9,-0.7 -0.9,0.2 -1.6,1.4 -2.5,1.2 -1.4,-0.9 -1.6,-3.2 -3,-4.2 -0.7,-0.5 -1.6,0.7 -2.4,0.5 -3.6,-1.4 -0.1,-3.9 -5.5,-4.2 0,1.9 -3.5,1.9 -5.4,2.3 -0.9,0.2 -1.8,1.4 -2.4,0.9 -4.5,-1.4 -1.1,-5.8 -6.9,-6 -2.2,0 -3.6,3.3 -5.9,3.5 -3.9,0.7 -9,-3.5 -12.5,0.9 -1.5,1.9 -0.5,8.1 -3.1,9.3 -0.9,0.2 -2.3,-0.7 -3.2,-0.2 -3.7,2.3 1.6,3.9 -4.2,4.9 -1.9,0.2 -5.9,-4.9 -7.9,-1.6 -0.6,1.2 0.5,3.3 -0.4,4.2 -2.6,2.5 -9.8,0.9 -13,3.3 -3,1.9 0.2,5.1 1.2,6.5 0.9,1.6 -18.8,5.1 -21.6,4.6 -4.4,-0.9 -7.6,-7 -11.8,-7.4 -0.9,-0.2 -1.6,0 -2.1,0.2 -3.3,1.4 0,8.8 -0.2,9.7 -1.4,2.6 -9.8,-1.2 -13,1.6 -1.4,1.2 5.5,0.7 5.8,4.6 0.5,4.6 -3.5,1.2 -5,4.4 -1.2,2.3 2.9,7.2 2.4,8.1 -2,3.5 -3.9,4.2 -8.1,8.8 l -0.1,0.2 c 0.4,-0.2 0.6,-0.5 1.1,-0.5 z"/>
<path style="fill:white; stroke:black; stroke-width:1.72;" d="m 165,260.4 c -0.5,4.6 -6.3,3.7 -6.7,7.4 -0.6,2.8 4.8,2.3 6,3.2 1.5,1.4 -2.8,3.3 -3.5,5.3 -0.9,3 2.8,-0.2 3.2,0.9 0.5,1.2 -2.1,4.2 -0.4,5.1 2.2,1.4 11.6,7 3.5,6.5 0.4,-1.2 0.4,-2.1 -0.5,-3.3 -4.4,-4.2 -4.2,-2.3 -6.7,0.9 0.1,-0.2 0.1,-0.5 0.1,-0.5 0,-2.3 -4.3,-2.8 -6.4,-1.9 -1.1,0.7 0,3.2 -0.9,4.2 -1,0.9 -2.5,0.2 -4,0.7 -3.2,1.4 -6.2,5.1 -9.9,5.8 -1.2,0.2 -2.3,-0.9 -3.3,-0.2 -0.9,0.2 0,1.6 -0.5,2.6 -0.2,0.7 -0.8,1.6 -1.3,2.3 0.2,-0.2 0.2,-0.5 0.5,-0.5 1.1,0 0.1,2.6 1.1,3 0.5,0.2 0.8,-1.4 1.2,-0.9 0.4,0.9 1.3,2.8 0.4,3.5 -0.4,0.2 -0.7,0.7 -0.4,1.2 0.2,0.2 0.7,-0.2 1.1,-0.2 1.4,1.2 3.7,1.9 4,3.5 1.3,6.5 -4.2,3.9 -5.8,7.9 -0.5,1.2 2.5,13.7 3.2,15.1 1.4,2.3 17.6,13.9 20.9,15.8 3.2,1.9 4.1,0.7 7.2,3.3 3.2,2.8 7.6,21.1 10.1,25.7 2.6,4.9 8,9.3 12.1,12.5 1.4,0.9 3.5,1.2 4.6,2.3 0.8,0.5 0,1.9 0.4,2.3 6.4,6.5 18.2,4.4 25.7,3.3 1.5,-0.2 5,-2.8 7.1,-0.5 5.8,6.5 -11.6,8.8 -2.8,14.8 8.3,5.6 19.9,5.1 28.5,9.5 3,1.6 4.2,4.2 7.7,5.3 2.8,1.2 10.4,2.3 12.7,4.2 1,0.7 0,2.3 0.7,3 2.8,3.9 10.1,3.3 12.5,11.4 0.9,3 -1.1,2.1 -1.8,4.2 -0.6,1.2 0.2,5.8 -0.7,6.3 -1,0.7 -2.6,0 -4,-0.7 -7.2,-2.8 -4.2,-6.9 -7.9,-11.8 -2.1,-2.8 -8.7,0 -12.2,-1.2 -4.7,-1.6 -7.3,-7 -11.6,-2.3 -0.5,0.7 -6.3,12.3 -6.3,12.8 0,0.7 1.2,1.4 0.9,2.3 -0.9,4.4 -5.5,4.2 -1.6,9.3 2.3,2.8 3,0.2 5.5,0.9 2.9,0.9 4.7,3.7 7.3,4.9 0.9,0.5 2.3,0 2.8,0.9 0.4,0.7 -1,1.6 -1,2.6 0.2,6.5 3.3,0.5 2.8,8.8 -0.3,4.9 -9.5,3 -13.7,7.9 -3,3.5 1,7 0,11.1 -0.7,3.5 -3,2.6 -5.3,4.4 -5.5,4.8 -1.6,15.9 -13.2,12.7 -2.4,-0.7 -4.9,-6.7 -3.5,-9.3 1,-1.4 3.3,-1.1 4.4,-2.3 0.6,-0.9 0.6,-2.3 1,-3.5 0.2,-1.2 1.1,-2.1 0.8,-3.2 -0.1,-1.4 -2.5,-2.1 -2.3,-3.5 1,-4.2 6.5,-1.9 8.1,-4.2 3.9,-4.6 -0.6,-5.3 -2.5,-7.9 -1.9,-2.8 -0.9,-6.7 -2.3,-9.7 -0.7,-1.9 -1.6,-3.5 -2.8,-4.9 -0.2,-0.5 -1.1,-0.5 -1.6,-0.9 -4.2,-6.3 0.2,-2.6 -2.5,-9.5 -3.6,-8.8 -5.6,-4.4 -12.6,-3.9 -0.2,0 0.2,-0.7 0,-1.2 -0.9,-0.9 -2.1,-2.1 -3.5,-2.8 -1.3,-0.7 -4.1,0 -5.1,-1.6 -0.9,-1.6 1.9,-3.3 1.7,-5.1 -0.3,-1.9 -1.7,-3.5 -2.6,-4.9 -5.6,-7.7 -6.4,3 -13,0.7 -0.7,-0.2 4.4,-3.9 2.2,-5.6 -8.4,-6 -0.3,0.2 -9.3,-0.9 -0.8,-0.2 0,-1.4 -0.3,-2.1 -0.9,-2.8 -5.8,-10.2 -8.1,-11.1 -6.2,-2.3 -1.4,2.1 -3.5,1.6 -2,-0.5 -3.9,-3 -6.2,-2.8 -2.1,0.5 -3.7,3.3 -5.6,2.8 -2,-0.5 -1.8,-3.5 -3.2,-4.9 -1.6,-1.4 -5.8,-0.9 -7.2,-1.9 l -3.5,-4.9 c -1.6,-1.4 -4.1,-1.6 -5.6,-3.3 -2.8,-4.2 0.5,-3.5 -2.8,-6 -1.3,-1.2 -2.9,-2.1 -4.6,-3 -0.4,-0.2 -1.4,0.5 -1.8,0.2 -2.6,-2.1 -2.6,-6 -5.1,-8.1 -4.4,-3.7 -7.2,-0.9 -11.9,-2.8 -0.7,-0.2 1.2,-0.9 1.7,-1.4 1.4,-1.9 -1.4,-4.9 -2.1,-5.6 -0.4,-0.5 -1.4,0 -1.9,-0.5 -0.7,-0.9 -0.7,-2.3 -1.6,-3 -1.2,-0.9 -3.5,-0.2 -4.4,-1.6 -0.7,-0.9 1.4,-2.8 0.2,-3.5 -1.3,-1.2 -3.6,0.2 -5.5,-0.5 -1.2,-0.5 0.6,-2.6 0.6,-3.9 0.8,-4.6 0,-6.3 -2.5,-10.2 -4.8,-7 -1.3,-13.2 -7.1,-18.5 -0.5,-0.7 -1.4,-0.9 -2.1,-1.2 -0.3,0 -0.5,0.7 -0.7,0.5 -1.1,-0.5 -1.9,-1.9 -3.1,-1.9 -0.6,0 0.7,2.1 0,1.9 -1.9,-0.5 -3.2,-1.9 -4.8,-3 -0.7,-0.5 -6.5,-6.5 -8.4,-6.5 -0.4,0 0.3,1.2 -0.2,1.4 -0.4,0.2 -1.1,0 -1.4,-0.5 -1.2,-1.4 -6,-3.7 -8.3,-3.7 -1,0 -7,3.5 -7.4,4.4 -0.5,0.9 0.2,2.3 -0.5,3 -0.6,0.9 -2.5,0.7 -3.2,1.4 -1.7,1.6 -2.8,5.3 -4.7,7 -3,3 -8.3,2.8 -11.8,3.2 -1.2,-4.2 6.7,-9.5 3.2,-12.1 -1.1,-0.7 -2.8,0.2 -4.1,0.5 -1.4,0 -3.1,0.7 -4.5,0.2 -2.5,-0.7 -8.5,-5.1 -8.3,-8.4 0,-0.5 1.2,-0.5 1.2,-0.9 -0.3,-0.7 -2.6,-1.4 -1.9,-2.8 1,-0.9 2.1,-1.6 2.8,-2.8 0.3,-0.2 -0.4,-0.7 -0.2,-1.2 0.2,-0.7 2.3,0.5 2.5,-0.2 0,-1.8 -0.2,-3.7 -0.9,-5.1 -1.1,-1.9 -8.8,-4.9 -8.3,-8.6 0,-1.2 2.1,-1.2 3.2,-1.4 0.8,0 1.2,1.4 1.9,1.2 1.1,-0.2 8.6,-6.3 7.4,-8.4 -0.7,-1.4 -3,-1.6 -3.8,-3.3 -0.7,-0.9 0.3,-2.6 -0.2,-3.5 -3.2,-5.6 -9.2,-2.8 1.4,-9 2.4,4.2 8.6,-0.5 11.6,-1.2 2.1,-0.5 3.7,2.3 5.8,2.3 0.2,0 6.7,-6.7 6.7,-7.9 0.3,-1.2 -1.8,-1.6 -1.6,-2.6 0.5,-1.4 2.4,-1.9 3.5,-2.8 1.1,-0.9 2.1,-1.9 3.2,-2.8 0.4,-0.2 0.9,-0.7 1.2,-0.5 0.5,1.4 0.2,2.8 0.2,4.2 0,0.7 -0.7,1.6 -0.4,2.6 1.6,3 5.3,3.7 7.8,4.7 0.2,0 0.7,0.5 0.7,0.9 -0.2,0.9 -1.8,1.6 -1.6,2.6 0.3,0.9 1.9,0.5 2.6,1.2 0.9,1.2 1.3,5.1 2.8,3.9 3.9,-3 -0.7,-2.1 -0.7,-4.4 0,-5.1 5.5,-6.5 6.5,-10.7 0,-0.5 -2.6,-6.7 1.3,-6 3.1,0.5 -0.7,5.1 5.3,6.5 3.8,1.2 0.8,-3.5 7,-2.3 1.9,0.2 0.9,3.9 2.6,4.9 0.9,0.5 2.7,-0.5 2.6,-1.4 -0.6,-0.7 -1.5,-1.2 -1.7,-2.1 0,-0.9 1.4,-1.6 1.1,-2.5 -0.5,-1.2 -4.6,-3.7 -1.3,-6 4.1,-3 2.5,3.7 7.4,2.6 2.8,-0.9 -1.6,-4.2 -1.6,-4.6 0.4,-0.9 1.1,-1.6 1.3,-2.5 0.6,-0.9 0.3,-2.1 0.6,-3 3.6,1.9 0.4,-0.5 4,0 1.9,0.2 3.8,5.1 7.5,3 l 3,-6.3 c 1.9,-1.4 10,-0.5 12,-0.7 3.5,-0.2 6.3,-3.2 9.8,-3.2 0.9,0 -1.6,1.2 -1.9,2.1 -1.1,4.9 1.9,1.6 3.7,4.4 0.5,0.7 -0.6,1.6 -0.2,2.5 0.2,0.5 0.9,-0.5 1.5,0 4.3,3.3 5.5,3.7 11.5,4.7 5.8,0.7 11.6,1.2 17.4,1.6 z"/>
<text x="254.3" y="182.2" transform="scale(0.9999,1.0001)" style="font-family:'Comic Sans MS'; font-size:17.2px; fill:black; stroke-width:1;">Slovakia</text>
<text x="159.1" y="175.8" transform="scale(0.9999,1.0001)" style="font-family:'Comic Sans MS'; font-size:17.2px; fill:black; stroke-width:1;">Republic</text>
<text x="152.8" y="157.3" transform="scale(0.9999,1.0001)" style="font-family:'Comic Sans MS'; font-size:17.2px; fill:black; stroke-width:1;">Czech</text>
<text x="249.7" y="240.4" transform="scale(0.9999,1.0001)" style="font-family:'Comic Sans MS'; font-size:17.2px; fill:black; stroke-width:1;">Hungary</text>
<text x="74.9" y="313.2" transform="scale(0.9999,1.0001)" style="font-family:'Comic Sans MS'; font-size:17.2px; fill:black; stroke-width:1;">Italy</text>
<path style="fill:white; stroke:black; stroke-width:1.72;" d="m 180,127.4 c 6.2,-0.9 -1.2,-6 5.2,-4.9 4.2,0.5 0.7,2.3 3.3,4.2 3.7,3 6.7,0.9 9.7,2.8 0.9,0.7 0.6,1.8 1.2,2.5 0.5,0.2 0.7,-0.5 0.9,-0.5 0.7,-0.2 1.3,-0.7 1.6,-0.2 0.8,0.7 0,1.9 0.8,2.6 0,0 5,-2.8 6.2,-2.1 6.2,3 -2.6,4.2 -2.1,7.2 l 5.3,3.3 c 0.7,0.9 2.1,7 5.5,5.6 1,-0.5 0.7,-2.1 1.4,-2.8 1.2,-0.9 3.6,-0.5 4.3,-1.9 0.1,-0.5 -5,-5.6 -3.5,-5.8 3.5,-0.5 7.4,3 9.4,3.7 1,0.2 2.1,-0.2 3.1,-0.2 0.9,0 2,0.5 3,0 0.4,-0.2 0.2,-1.2 0.4,-1.6 0.3,-0.2 0.7,-0.2 0.7,0 2.9,5.6 1,2.1 -2.1,4.9 -0.8,0.7 2.4,0.9 3.3,1.6 0.6,0.7 0.5,1.9 1.2,2.5 0.5,0.5 1.1,0.7 1.6,0.7 6.7,-0.7 -0.9,-1.2 3,-2.8 0.5,-0.2 0.5,0.7 0.9,0.9 1,0.7 3.6,1.4 4.7,1.6 1.4,0.5 3.4,-0.2 4.6,0.7 0.2,0.2 2.3,5.8 2.6,6 0.8,0.7 2.7,0 3.7,0.9 0.9,1.2 0.2,3.3 1.1,4.4 0.5,0.7 2.1,-0.5 2.8,0.2 0.7,0.7 -0.5,2.3 0.2,3 3.8,3 6.7,-8.8 9.1,-7.2 1.3,0.9 1.3,3 2.6,4.2 0.1,0.2 1.1,-0.5 1.2,-0.2 0.3,0.5 -0.6,1.4 -0.1,1.6 1.1,0.2 2.3,-0.9 3.2,-0.5 1.6,0.7 0.2,5.1 0.2,5.6 0,1.2 2.1,-0.7 3.2,-0.9 1,-0.2 1.9,1.6 2.8,1.2 0.4,-0.2 3,-7.4 6.3,-8.1 1,-0.2 1.9,0.7 2.8,0.7 1,-0.2 1.4,-1.6 2.3,-1.4 1.9,0.2 3.1,2.8 4.9,2.8 1.4,0 2.5,-1.4 3.2,-2.6 0.3,-0.5 -1.1,-0.5 -1.1,-0.9 0.7,-3.3 2,0 3,-0.5 0.7,-0.2 0.7,-1.6 1.4,-1.6 3.5,-0.9 11.3,-0.7 14.4,1.6 0.7,0.7 0.4,2.3 1.3,2.8 1.4,0.9 3.1,0.9 4.7,1.4 3,0.9 5.8,1.2 8.6,1.6 1.1,0 2.3,-0.5 3.5,-0.2 0.4,0.2 1.3,1.4 1.1,0.9 -2.9,-8.8 -0.5,0.5 -4.4,-4.4 -0.9,-0.9 0.9,-2.5 0.7,-3.7 -0.7,-2.3 -3.1,-4.2 -3.5,-6.7 -0.7,-1.9 13.5,-28.1 15.2,-29.7 4.3,-3.5 6.9,1.6 7.5,-6.7 0,-1.9 -4.7,-6 -4.9,-6.3 -1.1,-2.3 4.3,-2.1 3.5,-2.8 -3.7,-2.8 -10.4,-7.2 -12.5,-11.6 -0.5,-1.2 0.5,-2.8 0,-4.2 -0.7,-1.6 -2.7,-2.8 -3.4,-4.4 -1.9,-4.2 2.9,-12.1 -1.7,-15.8 -1.8,-1.4 -4.1,-2.1 -6.2,-2.3 -0.5,-0.2 -1,0.9 -1.5,0.7 -6.7,-2.6 7.9,-14.9 9.5,-16.5 0.3,-0.2 0.7,-0.7 0.7,-1.2 -0.7,-12.8 -10.9,-23.6 -14.9,-35.5 -1.5,-0.9 0,-3.5 -1.5,-5.3 C 321,2 323.6,7.1 317,4.3 c -2.2,-0.9 -0.7,-3.9 -4,-2.8 -0.7,0.2 -0.7,1.4 -1.5,1.9 -10.6,6.3 -41.9,7.4 -55.1,5.6 -4.2,4.4 -10.7,7 -16,4.9 -4.7,-1.9 -3.7,-6.3 -5.1,-9 -0.5,-0.7 -2.1,-2.6 -1.1,-2.3 0.6,0 1.3,0 1.8,0.2 -1.2,-0.7 -2.5,-1.4 -4,-1.6 -8.3,-1.4 -17.6,6 -23.8,9.7 -2.1,1.2 -4.7,0.7 -6.3,2.1 -3.9,3.5 -4.8,9 -6,9.3 -8.6,2.1 -16.7,5.8 -24.9,9 -1.9,0.9 -3.4,3.5 -5.5,3.9 -1.1,0.5 -2.2,-0.7 -3.5,-0.2 -2,1.2 2.8,6.3 0.7,6.7 0.6,3.7 4.2,10.9 4.7,13.2 0.6,5.6 -6.7,9.3 -5.1,13.7 1,2.8 9.7,4 9.7,7.4 0,3.5 -2.8,4.6 -0.6,7.2 0.6,1.2 2.2,1.6 2.8,3 0.7,1.2 -0.4,2.8 0,3.9 0.1,0.7 1.1,0.5 1.3,0.9 1.1,1.6 -1.7,5.6 -2.4,7 -1.3,2.1 2.2,3.3 2.9,5.3 0.4,1.2 -1.1,2.6 -0.5,3.5 0.9,1.4 3,0.9 3.9,1.9 2.8,2.6 2.3,14.4 0.6,18.8 z M 156.7,40 h 0.2 c 0.2,0.2 0.6,0.2 0.8,0.5 -0.2,-0.2 -0.6,-0.2 -0.8,-0.5 z m 1.2,0.5 v 0.2 h 0.2 0.3 z m 0.5,0 c 0,0 0,0.2 0.2,0.2 -0.2,0 -0.2,-0.2 -0.2,-0.2 z m 0.2,0.2 h 0.3 c 0.1,0 0.1,0 0.1,0.2 0,-0.2 0,-0.2 -0.1,-0.2 z m 0.1,0.2 h 0.3 0.3 z m 2.1,0.5 z m 0,0 h 0.2 z"/>
<path style="fill:white; stroke:black; stroke-width:1.72;" d="m 163,41.6 c 0.6,3.7 4.2,10.9 4.7,13.2 0.6,5.6 -6.7,9.3 -5.1,13.7 1,2.8 9.7,3.9 9.7,7.4 0,3.5 -2.8,4.6 -0.6,7.2 0.6,1.2 2.2,1.6 2.7,3 0.8,1.2 -0.3,2.8 0,3.9 0.2,0.7 1.2,0.5 1.4,0.9 1.1,1.6 -1.7,5.6 -2.4,7 -1.3,2.1 2.2,3.3 2.9,5.3 0.4,1.2 -1.1,2.6 -0.5,3.5 0.9,1.4 3,0.9 3.9,1.9 3.3,3 1.9,19.9 -0.9,20.4 -3,0.7 -7.9,-12.1 -10.5,-4.9 -0.4,1.2 3.8,2.1 2.8,2.8 -2.8,2.3 -6.7,2.6 -9.5,4.2 -0.4,0.2 0,1.4 -0.4,1.6 -1.9,0.9 -4.4,-0.5 -5.8,0.7 -1.2,0.9 -0.8,2.8 -1.9,3.7 -0.4,0.5 -0.9,-1.2 -1.6,-0.9 -2,0.5 -2.3,3.3 -3.7,4.2 -0.7,0.7 -2.1,-0.5 -2.7,0.2 -0.7,0.5 0,1.9 -0.7,2.5 -1,1.2 -3.5,-0.9 -4.3,-0.9 -5.8,0.9 -6.6,5.3 -8.6,9 -0.4,0.9 -0.4,-2.3 -1.3,-3 -0.6,-0.9 -2.1,-1.2 -3.2,-1.4 -2.1,-0.5 2.3,7 6.9,10 0.4,0.2 2.1,0.5 2.3,1.9 0.7,3.2 -2.3,2.1 -2.7,4.6 -0.3,0.7 4.8,9.3 5.5,10 3.9,3.9 4.9,1.2 7.4,3.7 1.6,1.6 1.9,4.2 3.5,5.6 3.7,2.6 13.7,6 13.4,12.1 -0.1,6.3 -1.6,4.9 -6.5,3.7 -0.4,0 -0.9,0.2 -1.1,0.7 -0.4,2.3 0.9,4.9 -1.5,6.7 -2,1.6 -11.7,3.9 -12,7.6 0,0 5.6,7.7 5.6,7.9 0.2,0.2 -3,3 -1.8,4 2.4,2.3 5,-1.2 3,6.5 0,0.5 -0.6,1.2 -1,1.2 -7.4,-2.1 -1.6,-5.8 -5.1,-6 -1.8,0 -3.5,1.6 -5.3,1.4 -0.9,-0.2 -0.7,-1.9 -1.4,-2.1 -1.4,-0.5 -2.7,0.7 -3.9,0.2 -0.5,-0.2 0.5,-1.6 0,-1.6 -2.7,0.2 -0.2,3.9 -0.9,4.2 -3.3,0.9 -8.6,-0.5 -11.6,0.7 -1,0.5 -0.5,2.1 -1.4,2.6 -1,0.7 -2.1,-0.5 -3,0.2 -0.7,0.2 0.2,1.4 -0.2,1.9 -0.4,0.2 -8.2,2.3 -9.1,1.9 -0.4,-0.5 0,-1.6 -0.4,-2.1 -0.3,-0.5 -1.4,-0.5 -1.7,-0.9 -0.2,-0.5 1.1,-0.2 1,-0.7 -1,-3 -7.5,0.7 -9.3,-1.4 0,0 0.4,-0.2 0.4,-0.5 -1.4,-0.9 0,3 -0.4,4.6 0,0.9 -4.4,6.3 -6.1,4.6 -0.9,-0.9 1.7,-2.3 1,-3.3 -0.3,-0.2 -1,0.7 -1.5,0.7 -0.4,0 -1.1,-0.2 -1.3,-0.7 -0.4,-0.7 1.1,-1.6 0,-2.6 -0.9,-0.7 -1.5,-1.9 -2.3,-2.3 -0.7,-0.5 -1.7,0.7 -2.6,0.5 -0.5,-0.5 0,-1.6 -0.5,-2.1 -1.1,-0.9 -0.8,3.2 -4.6,2.1 -2.5,-0.9 -4.1,-3.5 -6.7,-4.2 -0.3,0 -7.9,0.5 -7.9,0.5 -0.9,-0.5 -0.9,-2.1 -1.9,-2.5 -0.2,-0.5 0.5,1.2 0,1.4 -0.4,0.2 -1.3,0 -1.5,-0.5 -0.3,-0.7 0.8,-1.6 0.4,-2.1 -3.5,-3.5 -7.5,2.8 -6.7,3 1.4,0.2 2.8,-0.2 4.2,0 0.9,0.2 -1.7,0.5 -2.4,0.9 -0.4,0.2 0.2,1.4 0,1.6 -5.8,3 -1.6,-1.4 -6.2,-1.2 -0.7,0 -11.3,2.6 -12,1.2 -0.3,-0.5 1.3,-0.7 1.1,-0.9 -2.2,-1.6 -3,5.3 -3,-2.8 -0.3,-3.2 2,-6.3 2.3,-9.5 0,-0.5 -0.9,-0.5 -0.9,-1.2 -0.3,-1.2 0.2,-2.3 0.6,-3.5 l 3.3,-5.3 c 0.2,-1.4 0.5,-6.5 1.2,-8.1 1.8,-3.7 6.5,-6.5 9.1,-10.9 0.8,-1.6 -13,-3.2 -14,-3.9 -0.8,-0.7 -0.2,-2.1 -0.9,-2.8 -1.2,-0.9 -8.6,2.1 -9,1.4 -0.3,-0.7 0.6,-1.6 0.1,-2.1 -6.9,-6.3 -2.3,3.2 -5.1,0.2 -2.2,-2.3 -3.4,-7.7 -5.3,-8.8 -0.7,-0.7 -2,0 -2.5,-0.7 -2.6,-4.6 6.7,-6.5 3.5,-10.4 -0.4,-0.7 -6.1,-1.2 -7.3,-6 -2,-8.6 8.6,-8.1 5.4,-13.4 -0.7,-1.2 -2.8,-0.9 -3.2,-2.3 -0.3,-0.9 1.6,-1.8 1.4,-2.8 0,-0.7 -1.4,0.2 -1.8,-0.2 -0.3,-0.2 -3.5,-5.1 -3.3,-5.8 0.2,-0.9 1.8,-0.9 2,-1.9 0.7,-3.9 -6,-5.3 -3.9,-5.8 0.6,-0.2 1.2,0.7 1.7,0.7 l 4.3,-3.9 c 0.3,-1.2 -2.8,0.2 -1.8,-1.6 0.7,-1.6 2.2,-2.8 3,-4.4 2,-5.1 -3,-8.8 -4.4,-11.4 -0.2,-0.5 0.2,-1.2 0.4,-1.6 0,-0.5 -0.4,-1.2 0,-1.4 1.3,-0.7 2.6,0 4,-0.5 0.5,-0.2 -0.5,-1.6 0,-1.4 1.4,0.5 2.3,2.1 3.9,2.1 1.7,0.2 7.9,-1.9 8.6,-3.5 0.7,-1.6 -4.4,-1.8 -2.3,-3.2 3.8,-2.6 8.1,-3.5 7.1,-9.3 -0.1,-3.3 -8.7,-1.9 -6.7,-5.3 0.3,-0.7 1.5,0 1.5,-0.5 0.1,-0.7 -1,-1.4 -0.7,-2.1 0,-0.5 0.7,-0.5 1.1,-0.5 1.6,0 3,0.7 4.7,0.7 1.8,0 0.1,-3.7 0.8,-5.6 0.6,-1.6 4.5,-9 3.9,-13 0.8,-0.2 1.5,-0.7 2.2,-1.6 1,-0.9 -1.1,-0.5 -3.3,-0.5 -0.4,-0.5 -1.1,-0.2 -1.6,-0.2 -0.5,0 -0.6,-0.2 -0.9,-0.5 -1.9,-2.3 3.2,-9.5 5.1,-10.4 1.1,-0.7 2.5,0.7 3.6,0.7 17.5,-0.7 -18,-2.1 8.4,-1.4 0.2,0 1,0.2 1.3,0.5 1.3,2.5 2.2,13.2 8.1,10.9 1.7,-0.7 -1.9,-16.7 3.4,-16.7 0.5,0 0.5,1.4 1.1,1.6 0.7,0.5 1.9,0.5 2.9,0.5 2.3,0.5 4.8,-1.9 6.9,-0.9 1.6,0.7 1.6,3 2.6,4.4 1.1,1.9 7.3,13.7 7.3,5.8 0,-1.6 -3.4,-1.2 -4.8,-2.6 -2.3,-2.1 -1.8,-7.4 -6.3,-8.1 -0.6,0 -6,1.2 -5.6,-2.1 0.3,-2.1 3.5,-8.6 1.5,-11.1 -0.8,-0.7 -5.8,1.9 -6.6,-0.7 -0.2,-0.5 1.5,0 1.7,-0.5 0.4,-0.5 -1.7,-1.4 -1.2,-1.4 2.3,-0.7 6.3,1.6 7,-3 0,-0.5 -5.4,-6.3 -5.8,-7.2 -0.7,-1.6 -0.9,-3.5 -0.9,-5.1 1.6,0.2 4.3,0 5,0 3.1,0.5 6.1,2.1 9.1,2.6 -0.2,0.7 -0.2,0.9 0.3,0.7 0.8,-0.7 1.3,-1.9 2.3,-2.1 0.4,0 -0.2,1.2 0,1.6 0.6,0.5 1.6,0.2 2.3,0.5 1.6,0.2 3.3,0.2 4.4,0.9 0.7,0.5 0.8,1.4 0.8,2.1 0,0.2 -0.4,0 -0.4,0 -0.4,0.2 -1.4,0.7 -0.9,0.9 0.2,0.5 1.3,-0.5 1.6,0 0.8,1.2 0.5,2.6 0,3.7 -0.4,1.2 -3.7,1.9 -2.8,3 1.2,1.6 5.6,-2.6 5.8,-0.5 0.3,1.4 -2.2,3.9 -0.9,4.4 1.6,0.7 1.6,-3.3 3.3,-3.5 1.4,-0.2 6.7,4.4 7.9,4 0.1,0 4.8,-5.3 6.4,-2.6 3.3,6 -12.9,12.3 -4.1,13.2 1.8,0.2 3.2,-2.1 5.1,-2.1 2.3,0.2 -0.3,7 4.8,3.5 1.2,-0.7 1.9,-6.5 3.9,-7.7 3.1,-1.6 6.3,-2.3 7.8,0.9 -0.3,-0.7 -0.6,-1.9 -0.3,-2.1 1.4,-1.6 3.3,-2.3 4.4,-3.7 1.4,-1.6 1.7,-4.2 3,-5.8 0.5,-0.5 3.4,0.7 6.2,1.6 1.2,-0.2 2.3,-0.5 2.8,-0.5 1.7,0 0.7,3.2 1.7,4.6 0.6,0.9 2.3,0.5 2.9,1.4 1.5,1.2 2.2,4.4 4.3,4.2 1.5,0 3.4,-1.2 5.3,-0.7 0.7,0.2 -1,1.4 -1,2.1 0.3,1.9 1,3.7 1.7,5.6 0.6,1.9 3,2.6 4.8,3.2 1.4,0.5 2.3,0.7 3,0.5 z M 142,23.7 c 0.4,-2.1 -0.5,-4.6 0.2,-6.7 0.7,-2.1 7.7,3.9 6.2,1.8 -0.9,-1.4 -3.9,-0.7 -4.6,-2.3 -0.2,-1.4 1.8,-2.6 2.8,-3.7 0.9,-0.7 -0.7,2.8 0.2,3 1.6,0.5 3.2,-0.2 4.6,0.2 1.5,0.5 -1.8,2.3 -1.4,3.7 0.6,1.6 2.6,1.9 3.3,3.5 0.5,0.5 -2.6,2.8 -6.2,3.7 -1.9,0.7 -3.5,-2.1 -5.1,-3.2 z"/>
<path style="fill:white; stroke:black; stroke-width:1.72;" d="m 96,252.3 c -0.3,0.9 0,2.1 -0.6,3 -0.2,0.9 -0.9,1.6 -1.3,2.5 0,0.5 4.4,3.7 1.6,4.6 -4.9,1.2 -3.3,-5.6 -7.4,-2.6 -3.3,2.3 0.8,4.9 1.3,6 0.3,0.9 -1.1,1.6 -1.1,2.5 0.2,0.9 1.1,1.4 1.7,2.1 0.1,0.9 -1.7,1.8 -2.6,1.4 -1.7,-0.9 -0.7,-4.6 -2.6,-4.9 -6.2,-1.2 -3.2,3.5 -7,2.3 -6,-1.4 -2.2,-6 -5.3,-6.5 -3.9,-0.7 -1.3,5.6 -1.3,6 -1,4.2 -6.5,5.6 -6.5,10.7 0,2.3 4.6,1.4 0.7,4.4 -1.5,1.2 -1.9,-2.8 -2.8,-3.9 -0.7,-0.7 -2.3,-0.2 -2.6,-1.2 -0.2,-0.9 1.4,-1.6 1.6,-2.6 0,-0.5 -0.5,-0.9 -0.7,-0.9 -2.5,-0.9 -6.2,-1.6 -7.8,-4.6 -0.3,-0.9 0.4,-1.9 0.4,-2.6 0,-1.4 0.3,-2.8 -0.2,-4.2 -0.2,-0.2 -0.8,0.2 -1.2,0.5 -1.1,0.9 -2.1,1.9 -3.2,2.8 -1.1,0.9 -3,1.4 -3.5,2.8 -0.2,0.9 1.9,1.4 1.6,2.6 0,1.2 -6.5,7.9 -6.7,7.9 -2.1,0 -3.7,-2.8 -5.8,-2.3 -3,0.7 -9.2,5.3 -11.6,1.2 -0.9,-1.4 -0.9,-3 -2,-4.2 -0.3,-0.5 -1.2,0.9 -1.4,0.5 -0.3,-0.7 0.9,-1.9 0.4,-2.6 -0.2,-0.7 -1.6,0 -2.1,-0.5 -1.4,-2.3 1.9,-2.1 1.7,-3.5 -0.3,-1.2 -1.7,-1.6 -1.7,-2.8 -0.2,-0.7 1.7,-2.1 0.7,-2.3 -3,-1.4 -9.5,-1.4 -11.6,1.9 -0.4,0.5 -0.2,0.9 -0.2,1.6 0.2,0.5 1.4,0.9 1.2,1.4 -1.4,2.8 -4.6,3.9 -7.5,3.3 -0.2,0 1,-0.5 1,-0.9 0,-3 2.3,-1.9 2.5,-2.6 1.1,-3.7 -1.8,-7 0.9,-10.4 1.7,-2.3 5.8,-2.3 6.8,-4.9 0.7,-1.4 -0.7,-3.5 0,-5.1 0.9,-1.9 4.1,-1.2 5.5,-2.8 1.6,-1.4 3.5,-6 5.6,-7.7 1.2,-0.9 2.3,1.6 2.6,-1.6 0,-1.2 -3.6,1.2 -3.8,0 -0.5,-1.2 1.4,-2.1 2.1,-3 0,0 0.5,0.2 0.5,0 0,-0.5 -0.9,-1.4 -0.5,-1.6 6.5,-1.9 3.7,7 11.6,-1.2 0.2,0 0.6,-0.5 0.9,-0.9 l 0.5,-0.5 c 0.4,-0.2 1,-0.2 1.4,0.2 0.2,0.2 -1.4,0.5 -1.1,0.9 0.7,1.4 11.3,-1.2 12,-1.2 4.6,-0.2 0.4,4.2 6.2,1.2 0.2,-0.2 -0.4,-1.4 0,-1.6 0.7,-0.5 3.3,-0.7 2.4,-0.9 -1.4,-0.2 -2.8,0.2 -4.2,0 -0.8,-0.2 3.2,-6.5 6.7,-3 0.4,0.5 -0.7,1.4 -0.4,2.1 0.2,0.5 1.1,0.7 1.5,0.5 0.5,-0.2 -0.2,-1.9 0,-1.4 1,0.5 1,2.1 1.9,2.5 0,0 7.6,-0.5 7.9,-0.5 2.3,0.5 3.9,2.8 6.1,3.9 v 0.2 c 0,1.6 2.9,2.1 2,4.4 -0.2,0.5 -1.2,0.2 -1.4,0.5 -0.6,1.2 -3,9.5 -2.5,9.7 0.5,0.2 8.1,0.9 8.3,0.9 0.4,0.5 -0.7,1.2 -0.2,1.6 1.1,1.4 2.5,2.3 4.2,3 3.7,1.9 4.4,-4.4 6.9,-3.9 0.7,0 1.2,0.2 1.6,0.5 l -0.1,2.1 c -0.3,0.7 -0.6,1.2 0,1.4 z"/>
<path style="fill:white; stroke:black; stroke-width:1.72;" d="m 78,232.2 c 0,1.6 2.9,2.1 2,4.4 -0.2,0.5 -1.2,0.2 -1.4,0.5 -0.2,0.7 -0.9,2.6 -1.6,4.6 l 1.1,2.6 v 2.8 c 2.4,0.2 6.1,0.7 6.3,0.7 0.4,0.5 -0.7,1.2 -0.2,1.6 1.1,1.4 2.5,2.3 4.2,3 3.7,1.9 4.4,-4.4 6.9,-3.9 4.9,0.7 -0.3,3.3 1.5,3.9 3.6,1.9 0.4,-0.5 4,0 1.9,0.2 3.8,5.1 7.5,3 l 3,-6.3 c 1.9,-1.4 10,-0.5 12,-0.7 3.5,-0.2 6.3,-3.3 9.8,-3.3 0.9,0 -1.6,1.2 -1.9,2.1 -1.1,4.9 1.9,1.6 3.7,4.4 0.5,0.7 -0.6,1.6 -0.2,2.5 0.2,0.5 0.9,-0.5 1.5,0 4.3,3.3 5.5,3.7 11.5,4.7 6.9,0.9 14.1,1.2 21.3,2.3 1.9,0.2 3.7,1.6 5.5,1.9 1.9,0.2 3.8,-1.2 5.6,-0.9 1.2,0.2 1.9,1.9 3,1.9 0.5,0.2 0.3,-1.2 0.8,-1.4 1.1,-1.2 3,-1.6 4.1,-3 1,-0.7 0.2,-2.3 1,-3 4.3,-3.5 9,0.9 13.1,-0.9 1.4,-0.7 1.7,-2.8 3.1,-3.3 0.1,-0.2 7.9,0.9 8,0.7 0.7,-0.2 -0.6,-1.2 -0.8,-1.9 -0.5,-2.3 0.4,-3.7 2,-4.2 4.2,-4.6 6.1,-5.3 8.1,-8.8 0.5,-0.9 -3.6,-5.8 -2.4,-8.1 1.5,-3.2 5.5,0.2 5,-4.4 -0.3,-3.9 -7.2,-3.5 -5.8,-4.6 3.2,-2.8 11.6,0.9 13,-1.6 0.2,-0.9 -3.1,-8.3 0.2,-9.7 -2.7,-3 -5.1,-6 -7.2,-9.5 -1.9,-3 4.9,-7.9 0,-11.4 -0.7,-0.5 -1.6,0.9 -2.3,0.9 -1.2,-0.2 -3.5,-3.3 -5.1,-2.8 -1.2,0.5 -1.6,2.3 -3,3 -1,0.2 -2.1,-0.2 -3,-0.2 -6.3,-0.7 -11.6,-5.8 -18.3,-5.8 -1.2,0 -2.1,1.4 -3.2,1.4 -0.6,-0.2 0,-1.4 -0.6,-1.6 -0.8,-0.5 -2.3,-0.9 -2.9,-0.2 -0.3,0.5 0.2,7.2 -0.3,7.7 -0.4,0.7 -2,-0.9 -3,-0.2 0,0 -1.8,6 -1.8,6 -1.7,0.5 -3.3,-1.6 -4.9,-1.6 -0.9,0 -0.7,1.9 -1.6,2.1 -4.9,1.9 -7.7,-3 -11.3,-4.9 h -0.3 c 0.3,0.7 0.4,1.4 0.4,2.1 -0.1,6.3 -1.6,4.9 -6.5,3.7 -0.4,0 -0.9,0.2 -1.1,0.7 -0.4,2.3 0.9,4.9 -1.5,6.7 -2,1.6 -11.7,3.9 -12,7.6 0,0 5.6,7.7 5.6,7.9 0.2,0.2 -3,3 -1.9,4 2.5,2.3 5.1,-1.2 3.1,6.5 0,0.5 -0.6,1.2 -1,1.2 -7.4,-2.1 -1.6,-5.8 -5.1,-6 -1.8,0 -3.5,1.6 -5.3,1.4 -0.9,-0.2 -0.7,-1.9 -1.4,-2.1 -1.4,-0.5 -2.7,0.7 -3.9,0.2 -0.5,-0.2 0.5,-1.6 0,-1.6 -2.7,0.2 -0.2,3.9 -0.9,4.2 -3.3,0.9 -8.6,-0.5 -11.6,0.7 -1,0.5 -0.5,2.1 -1.4,2.6 -1,0.7 -2.1,-0.5 -3,0.2 -0.7,0.2 0.2,1.4 -0.2,1.9 -0.4,0.2 -8.2,2.3 -9.1,1.9 -0.4,-0.5 0,-1.6 -0.4,-2.1 -0.3,-0.5 -1.4,-0.5 -1.7,-0.9 -0.2,-0.5 1.1,-0.2 1,-0.7 -1,-3 -7.5,0.7 -9.3,-1.4 0,0 0.4,-0.2 0.4,-0.5 -1.4,-0.9 0,3 -0.4,4.6 0,0.9 -4.4,6.3 -6.1,4.6 -0.9,-0.9 1.7,-2.3 1,-3.3 -0.3,-0.2 -1,0.7 -1.5,0.7 -0.4,0 -1.1,-0.2 -1.3,-0.7 -0.4,-0.7 1.1,-1.6 0,-2.6 -0.9,-0.7 -1.5,-1.9 -2.3,-2.3 -0.7,-0.5 -1.7,0.7 -2.6,0.5 -0.5,-0.5 0,-1.6 -0.5,-2.1 -1.2,-0.9 -0.8,3.3 -4.6,2.1 -0.2,-0.2 -0.5,-0.2 -0.6,-0.2 z"/>
<path style="fill:none; stroke:black; stroke-width:1.72;" d="m 77,241.7 1.1,2.6 v 2.8 c -1.1,0 -1.9,-0.2 -2,-0.2 -0.3,-0.2 0.5,-2.6 0.9,-5.1 z"/>
<path style="fill:white; stroke:black; stroke-width:1.72;" d="m 225,257.7 c -1.6,-0.2 -5.5,-1.2 -6.6,-0.9 -2.5,0.5 1.1,3.7 -0.4,4.6 -1.1,0.5 -2.5,-0.2 -3.7,0.2 -0.5,0.2 0.2,1.2 -0.2,1.6 -2.3,1.9 -6.1,2.1 -8.4,4.2 -2.8,2.6 5.2,9 1.6,11.6 -8.1,5.8 -3,-4 -8.4,3.7 -0.6,0.9 2.2,1.2 2.6,2.3 0.5,0.9 -2.3,0.7 -2.3,1.6 0,0.5 2.3,3.5 1.4,4.6 -2.5,2.6 -6.2,-1.4 -8.6,-1.4 -3.4,0 3.3,3.2 -2.5,1.6 -1.6,-0.5 -3.7,-3 -4.4,-4.4 -0.4,-0.5 -1,-1.9 -1.1,-1.4 -1,1.4 -0.7,3 -1.7,4.2 -3,3.9 -7.2,0 -10.6,1.2 -0.6,0.2 0.4,1.2 0,1.6 -2.1,1.2 -6.4,0.9 -8.3,0 0,0 0,-0.2 0.1,-0.2 1.2,-1.2 2.6,-2.3 3.1,-3.5 8.1,0.5 -1.3,-5.1 -3.5,-6.5 -1.7,-0.9 0.9,-3.9 0.4,-5.1 -0.4,-1.2 -4.1,2.1 -3.2,-0.9 0.7,-2.1 5,-4 3.5,-5.3 -1.2,-0.9 -6.6,-0.5 -6,-3.2 0.4,-3.7 6.2,-2.8 6.7,-7.4 H 164 c 1.3,0.2 2.8,0.5 4.4,0.7 1.9,0.2 3.7,1.6 5.5,1.9 1.9,0.2 3.8,-1.2 5.6,-0.9 1.2,0.2 1.9,1.9 3,1.9 0.5,0.2 0.3,-1.2 0.8,-1.4 1.1,-1.2 3,-1.6 4.1,-3 1,-0.7 0.2,-2.3 1,-3 4.3,-3.5 9,0.9 13.1,-0.9 1.4,-0.7 1.7,-2.8 3.1,-3.3 0.1,-0.2 7.9,0.9 8,0.7 0.7,-0.2 -0.6,-1.2 -0.8,-1.9 -0.7,-3.7 2,-4.6 5.5,-4.6 1,0 2.8,7.2 7.7,11.1 z"/>
<text x="58.5" y="114.2" transform="scale(0.9999,1.0001)" style="font-family:'Comic Sans MS'; font-size:17.2px; fill:black; stroke-width:1;">Germany</text>
<text x="158" y="238.4" transform="scale(0.9999,1.0001)" style="font-family:'Comic Sans MS'; font-size:17.2px; fill:black; stroke-width:1;">Austria</text>
<text x="49.4" y="249.1" transform="scale(0.9999,1.0001)" style="font-family:'Comic Sans MS'; text-align:center; text-anchor:middle; font-size:14.5px; fill:black; stroke-width:1;">Switzerland</text>
<text x="232.1" y="85.3" transform="scale(0.9999,1.0001)" style="font-family:'Comic Sans MS'; font-size:17.2px; fill:black; stroke-width:1;">Poland</text>
<text x="172.6" y="284.3" transform="scale(0.9999,1.0001)" style="font-family:'Comic Sans MS'; font-size:17.2px; fill:black; stroke-width:1;">Slovenia</text>
</svg>
